<?xml version="1.0" encoding="UTF-8" standalone="no"?>
<!-- Created with Inkscape (http://www.inkscape.org/) -->

<svg
   xmlns:dc="http://purl.org/dc/elements/1.1/"
   xmlns:cc="http://creativecommons.org/ns#"
   xmlns:rdf="http://www.w3.org/1999/02/22-rdf-syntax-ns#"
   xmlns:svg="http://www.w3.org/2000/svg"
   xmlns="http://www.w3.org/2000/svg"
   xmlns:sodipodi="http://sodipodi.sourceforge.net/DTD/sodipodi-0.dtd"
   xmlns:inkscape="http://www.inkscape.org/namespaces/inkscape"
   id="svg2"
   height="22"
   width="22"
   version="1.0"
   inkscape:version="0.48.4 r9939"
   sodipodi:docname="indicator-sound-switcher.svg">
  <metadata
     id="metadata3014">
    <rdf:RDF>
      <cc:Work
         rdf:about="">
        <dc:format>image/svg+xml</dc:format>
        <dc:type
           rdf:resource="http://purl.org/dc/dcmitype/StillImage" />
        <dc:title />
      </cc:Work>
    </rdf:RDF>
  </metadata>
  <defs
     id="defs3012" />
  <sodipodi:namedview
     pagecolor="#646464"
     bordercolor="#666666"
     borderopacity="1"
     objecttolerance="10"
     gridtolerance="10"
     guidetolerance="10"
     inkscape:pageopacity="0"
     inkscape:pageshadow="2"
     inkscape:window-width="2495"
     inkscape:window-height="1416"
     id="namedview3010"
     showgrid="false"
     inkscape:zoom="45.254834"
     inkscape:cx="12.164021"
     inkscape:cy="12.595399"
     inkscape:window-x="65"
     inkscape:window-y="24"
     inkscape:window-maximized="1"
     inkscape:current-layer="svg2"
     inkscape:snap-global="true"
     showguides="true"
     inkscape:guide-bbox="true">
    <inkscape:grid
       type="xygrid"
       id="grid3820" />
  </sodipodi:namedview>
  <g
     id="g2984"
     transform="translate(1.1389418e-7,0.74949175)">
    <path
       id="path2993"
       d="m 6.1874994,8.9173024 c -1.0953783,1.1685666 -1.75,2.7363616 -1.75,4.4687496 0,3.631133 2.9313679,6.5625 6.5624996,6.5625 3.631134,0 6.5625,-2.931367 6.5625,-6.5625 0,-1.72853 -0.660413,-3.297956 -1.75,-4.4687496 l -1.3125,1.3124996 c 0.760804,0.829026 1.1875,1.936725 1.1875,3.15625 0,2.593666 -2.093833,4.6875 -4.6875,4.6875 -2.5936653,0 -4.6874996,-2.093834 -4.6874996,-4.6875 0,-1.212189 0.4593126,-2.298258 1.21875,-3.125 l -1.34375,-1.3437496 z"
       style="fill:#dfdbd2;fill-opacity:1;stroke:#000000;stroke-width:0.5;stroke-miterlimit:4;stroke-opacity:1;stroke-dasharray:none"
       inkscape:connector-curvature="0" />
    <path
       sodipodi:nodetypes="scscszsccscsscsccsccsccscsscsccccscsscsccccscss"
       id="rect3788"
       d="M 3.0625,1.09375 C 2.6903788,1.7355125 2.3132031,2.3871876 1.9375,3.03125 1.693884,3.453205 1.832494,3.964495 2.21875,4.1875 2.474735,4.3352934 2.7839868,4.3091742 3.03125,4.15625 l 0,2.5625 c 0,0.3121835 0.1301643,0.5133377 0.21875,0.59375 0.088586,0.080412 0.2770048,0.21875 0.65625,0.21875 l 6.28125,0 0,4.90625 C 9.940237,12.284576 9.6309856,12.258457 9.375,12.40625 c -0.3862559,0.223005 -0.5248658,0.765545 -0.28125,1.1875 0.3761456,0.640923 0.7400656,1.309593 1.125,1.9375 0.428651,0.699219 1.038699,0.699219 1.53125,0.03125 0.437758,-0.593662 0.767848,-1.321414 1.15625,-1.96875 0.243616,-0.421955 0.105005,-0.964495 -0.28125,-1.1875 -0.255986,-0.147793 -0.565237,-0.121674 -0.8125,0.03125 l 0,-4.90625 6.375,0 c 0.02073,0 0.04219,0.00158 0.0625,0 0.209252,0 0.368224,-0.077569 0.5,-0.21875 0.140666,-0.1406661 0.21875,-0.3469288 0.21875,-0.5625 l 0,-0.03125 0,-2.5625 c 0.247263,0.1529242 0.556514,0.1790434 0.8125,0.03125 0.386255,-0.223005 0.524866,-0.734295 0.28125,-1.15625 -0.390045,-0.6597854 -0.757829,-1.3530579 -1.15625,-2 C 18.506908,0.382812 17.834101,0.382812 17.375,1.125 c -0.378258,0.6114951 -0.726645,1.2769277 -1.09375,1.90625 -0.243616,0.421955 -0.136256,0.933245 0.25,1.15625 0.268739,0.1551568 0.590443,0.1118905 0.84375,-0.0625 l 0,1.8125 -5.5625,0 0,-1.78125 C 12.059763,4.3091742 12.369014,4.3352934 12.625,4.1875 13.011255,3.964495 13.149866,3.453205 12.90625,3.03125 12.494025,2.3327647 12.129007,1.6246912 11.75,1.03125 11.335869,0.382812 10.644632,0.382812 10.21875,1.09375 9.8375202,1.7301483 9.4694538,2.3871863 9.09375,3.03125 8.8501342,3.453205 8.9887441,3.964495 9.375,4.1875 9.6309856,4.3352934 9.940237,4.3091742 10.1875,4.15625 l 0,1.78125 -5.5625,0 0,-1.8125 C 4.8783074,4.2993903 5.2000106,4.3426568 5.46875,4.1875 5.855005,3.964495 5.962366,3.453205 5.71875,3.03125 5.3461032,2.4051758 5.0007949,1.7369262 4.625,1.125 4.1692091,0.382812 3.4747321,0.382812 3.0625,1.09375 z"
       style="fill:#dfdbd2;fill-opacity:1;stroke:#000000;stroke-width:0.5;stroke-miterlimit:4;stroke-opacity:1;stroke-dasharray:none"
       inkscape:connector-curvature="0" />
  </g>
</svg>
