<svg xmlns="http://www.w3.org/2000/svg" height="512" width="512" version="1.0"><path d="M79.143 6.172a11.775 11.775 0 00-8.344 3.407l-42.09 42.09c-7.407 7.406-2.173 20.07 8.294 20.07H59.22v110.028c0 9.875 7.998 17.824 17.897 17.824H236.1v158.883h-22.218a11.726 11.726 0 00-8.27 19.996l42.09 42.09a11.726 11.726 0 0016.59 0l42.09-42.09c7.407-7.406 2.173-19.996-8.294-19.996H275.87V199.591h158.982c9.874 0 17.922-7.949 17.922-17.824V71.74h22.218a11.75 11.75 0 008.295-20.07l-42.09-42.09a11.775 11.775 0 00-16.64 0l-42.09 42.09c-7.406 7.406-2.173 20.07 8.294 20.07h22.218v88.131H275.87V71.74h22.218a11.75 11.75 0 008.295-20.07l-42.09-42.091a11.726 11.726 0 00-16.59 0l-42.066 42.09c-7.406 7.406-2.173 20.07 8.294 20.07h22.218v88.131H98.991V71.74h22.218a11.75 11.75 0 008.294-20.07L87.437 9.578a11.677 11.677 0 00-8.294-3.407zm58.013 227.363a160.265 160.265 0 00-43.201 110.35 161.796 161.796 0 00162.042 161.943 161.796 161.796 0 00161.994-161.993 161.203 161.203 0 00-43.202-110.35L342.4 265.95c18.762 20.49 29.303 47.818 29.303 77.935a115.558 115.558 0 01-115.706 115.682 115.558 115.558 0 01-115.73-115.706c0-29.945 11.356-56.755 30.117-77.146l-33.203-33.179z" fill="#dfdbd2" stroke="#000" stroke-width="12.343"/></svg>