<svg xmlns="http://www.w3.org/2000/svg" height="512" width="512" version="1.0"><path d="M74.798.036a12.066 12.066 0 00-8.55 3.49L23.122 46.655c-7.588 7.588-2.226 20.565 8.5 20.565h22.764v112.738c0 10.118 8.196 18.263 18.34 18.263h162.922v162.796h-22.765a12.015 12.015 0 00-8.5 20.489l43.128 43.127a12.015 12.015 0 0016.998 0l43.128-43.127c7.588-7.589 2.226-20.489-8.5-20.489h-22.765V198.22h162.923c10.118 0 18.339-8.145 18.339-18.263V67.219h22.765a12.04 12.04 0 008.5-20.565L445.77 3.527a12.066 12.066 0 00-17.049 0l-43.127 43.127c-7.589 7.588-2.226 20.565 8.499 20.565h22.765v90.301H276.37V67.22h22.766a12.04 12.04 0 008.499-20.565L264.508 3.527a12.015 12.015 0 00-16.998 0l-43.102 43.127c-7.588 7.588-2.226 20.565 8.5 20.565h22.764v90.301H95.16V67.22h22.766a12.04 12.04 0 008.499-20.565L83.297 3.527A11.964 11.964 0 0074.798.01zM134.266 233A164.213 164.213 0 0090 346.067 165.781 165.781 0 00256.01 512a165.781 165.781 0 00165.983-165.984 165.174 165.174 0 00-44.266-113.067l-33.187 33.263c19.224 20.994 30.025 48.995 30.025 79.855a118.404 118.404 0 01-118.556 118.53 118.404 118.404 0 01-118.581-118.555c0-30.683 11.635-58.153 30.86-79.046z"/></svg>