<svg xmlns="http://www.w3.org/2000/svg" height="512" width="512"><path d="M 79.142327,6.1726032 A 11.774994,11.774994 0 0 0 70.798331,9.5796013 L 28.708355,51.669577 c -7.406996,7.405996 -2.172999,20.069989 8.293996,20.069989 H 59.219338 V 181.7675 c 0,9.87499 7.997994,17.82399 17.896989,17.82399 H 236.09923 v 158.8829 h -22.21797 a 11.725994,11.725994 0 0 0 -8.27001,19.996 l 42.08998,42.08997 a 11.725994,11.725994 0 0 0 16.58998,0 l 42.08998,-42.08997 c 7.407,-7.406 2.17301,-19.996 -8.29399,-19.996 h -22.218 v -158.8829 h 158.98191 c 9.874,0 17.922,-7.949 17.922,-17.82399 V 71.740565 h 22.21798 a 11.749993,11.749993 0 0 0 8.295,-20.069987 L 441.19612,9.5806006 a 11.774994,11.774994 0 0 0 -16.64,0 L 382.46615,51.670578 c -7.40598,7.405994 -2.173,20.069987 8.294,20.069987 h 22.21798 V 159.8715 H 275.8692 V 71.740565 h 22.218 a 11.749993,11.749993 0 0 0 8.29499,-20.069987 L 264.29222,9.5796013 a 11.725994,11.725994 0 0 0 -16.58999,0 L 205.63625,51.669577 c -7.406,7.405996 -2.173,20.069989 8.294,20.069989 h 22.21799 V 159.8705 H 98.990319 V 71.740565 H 121.2083 a 11.749993,11.749993 0 0 0 8.294,-20.069987 L 87.436321,9.5786011 A 11.676994,11.676994 0 0 0 79.142327,6.1716031 Z M 137.15529,233.53547 A 160.26491,160.26491 0 0 0 93.954322,343.88539 161.7959,161.7959 0 0 0 255.99622,505.82831 161.7959,161.7959 0 0 0 417.99013,343.8354 161.20291,161.20291 0 0 0 374.78814,233.48548 l -32.38897,32.46497 c 18.76199,20.48999 29.30297,47.81797 29.30297,77.93494 A 115.55793,115.55793 0 0 1 255.99622,459.56733 115.55793,115.55793 0 0 1 140.26629,343.8614 c 0,-29.94498 11.356,-56.75496 30.11698,-77.14596 l -33.20298,-33.17898 z" style="fill:#dfdbd2;stroke:#000000;stroke-width:12.34299278"/></svg>
