<svg xmlns="http://www.w3.org/2000/svg" height="512" width="512"><path d="M 74.796092,0.03560681 A 12.066005,12.066005 0 0 0 66.246089,3.5256082 L 23.120068,46.654628 c -7.588002,7.588004 -2.226,20.565009 8.500005,20.565009 h 22.76401 V 179.95769 c 0,10.118 8.196003,18.26301 18.340008,18.26301 H 235.64617 v 162.79607 h -22.76501 a 12.015005,12.015005 0 0 0 -8.50001,20.48901 l 43.12802,43.12702 a 12.015005,12.015005 0 0 0 16.99802,0 l 43.12801,-43.12702 c 7.58801,-7.589 2.22601,-20.48901 -8.50001,-20.48901 h -22.765 V 198.2197 h 162.92307 c 10.11801,0 18.33901,-8.14501 18.33901,-18.26302 V 67.218637 h 22.76501 a 12.040006,12.040006 0 0 0 8.50001,-20.565008 L 445.76827,3.5266085 a 12.066005,12.066005 0 0 0 -17.04901,0 L 385.59224,46.653629 c -7.589,7.588002 -2.226,20.565008 8.499,20.565008 h 22.76502 V 157.51968 H 276.36818 V 67.219637 h 22.76602 a 12.040006,12.040006 0 0 0 8.499,-20.565009 L 264.50618,3.5266085 a 12.015005,12.015005 0 0 0 -16.998,0 L 204.40616,46.653629 c -7.58801,7.588002 -2.22601,20.565008 8.49999,20.565008 h 22.76402 V 157.51968 H 95.158102 V 67.219637 h 22.766008 a 12.040006,12.040006 0 0 0 8.49901,-20.565009 L 83.295096,3.5266085 A 11.964005,11.964005 0 0 0 74.796092,0.00960608 Z M 134.26412,232.99971 A 164.21307,164.21307 0 0 0 89.998099,346.06676 165.78108,165.78108 0 0 0 256.00818,511.99984 165.78108,165.78108 0 0 0 421.99126,346.01577 165.17407,165.17407 0 0 0 377.72523,232.94871 l -33.18701,33.26302 c 19.22401,20.99401 30.02501,48.99502 30.02501,79.85503 A 118.40406,118.40406 0 0 1 256.00718,464.59682 118.40406,118.40406 0 0 1 137.42613,346.04176 c 0,-30.68301 11.635,-58.15302 30.86,-79.04604 z" fill="#bebebe"/></svg>