<?xml version="1.0" encoding="UTF-8" standalone="no"?>
<!-- Created with Inkscape (http://www.inkscape.org/) -->

<svg
   xmlns:dc="http://purl.org/dc/elements/1.1/"
   xmlns:cc="http://creativecommons.org/ns#"
   xmlns:rdf="http://www.w3.org/1999/02/22-rdf-syntax-ns#"
   xmlns:svg="http://www.w3.org/2000/svg"
   xmlns="http://www.w3.org/2000/svg"
   xmlns:sodipodi="http://sodipodi.sourceforge.net/DTD/sodipodi-0.dtd"
   xmlns:inkscape="http://www.inkscape.org/namespaces/inkscape"
   id="svg2"
   height="22"
   width="22"
   version="1.0"
   inkscape:version="0.48.3.1 r9886"
   sodipodi:docname="indicator_sound_switcher.svg">
  <metadata
     id="metadata3014">
    <rdf:RDF>
      <cc:Work
         rdf:about="">
        <dc:format>image/svg+xml</dc:format>
        <dc:type
           rdf:resource="http://purl.org/dc/dcmitype/StillImage" />
        <dc:title></dc:title>
      </cc:Work>
    </rdf:RDF>
  </metadata>
  <defs
     id="defs3012" />
  <sodipodi:namedview
     pagecolor="#646464"
     bordercolor="#666666"
     borderopacity="1"
     objecttolerance="10"
     gridtolerance="10"
     guidetolerance="10"
     inkscape:pageopacity="0"
     inkscape:pageshadow="2"
     inkscape:window-width="2495"
     inkscape:window-height="1416"
     id="namedview3010"
     showgrid="false"
     inkscape:zoom="32.772727"
     inkscape:cx="0.4881154"
     inkscape:cy="11.425827"
     inkscape:window-x="65"
     inkscape:window-y="24"
     inkscape:window-maximized="1"
     inkscape:current-layer="svg2"
     inkscape:snap-global="true">
    <inkscape:grid
       type="xygrid"
       id="grid3820" />
  </sodipodi:namedview>
  <g
     id="g4139"
     transform="translate(-6.2021172e-7,0.296875)"
     style="fill:#3c3c3c;fill-opacity:1">
    <path
       id="path2993"
       d="m 6.1875,9.375 c -1.0953783,1.168567 -1.75,2.736362 -1.75,4.46875 0,3.631133 2.9313679,6.5625 6.5625,6.5625 3.631134,0 6.5625,-2.931367 6.5625,-6.5625 0,-1.72853 -0.660413,-3.297956 -1.75,-4.46875 L 14.5,10.6875 c 0.760804,0.829026 1.1875,1.936725 1.1875,3.15625 0,2.593666 -2.093833,4.6875 -4.6875,4.6875 -2.5936657,0 -4.6875,-2.093834 -4.6875,-4.6875 0,-1.212189 0.4593126,-2.298258 1.21875,-3.125 L 6.1875,9.375 z"
       style="fill:#3c3c3c;fill-opacity:1;stroke:none"
       inkscape:connector-curvature="0" />
    <g
       id="g4129"
       style="fill:#3c3c3c;fill-opacity:1">
      <rect
         style="fill:#3c3c3c;fill-opacity:1;stroke:none"
         id="rect3788"
         width="1.6101431"
         height="15.523305"
         x="10.194929"
         y="1"
         rx="0.7229324" />
      <path
         id="path3811"
         d="m 10.889074,16.521156 c -0.02926,-0.0027 -0.05356,-0.02136 -0.08245,-0.02748 -0.07545,-0.01599 -0.150047,-0.01465 -0.219869,-0.05497 -0.139555,-0.08057 -0.237733,-0.217938 -0.302321,-0.357288 -0.02479,-0.0535 -0.06954,-0.10653 -0.08245,-0.164902 L 9.1026313,14.04762 c -0.2436158,-0.421955 -0.1114186,-0.958795 0.2748373,-1.1818 0.3862559,-0.223005 0.8832174,-0.06467 1.1268324,0.357288 l 0.494708,0.851996 0.494707,-0.851996 c 0.243616,-0.421955 0.740577,-0.580293 1.126833,-0.357288 0.386255,0.223005 0.518453,0.759845 0.274837,1.1818 l -1.099349,1.868894 c -0.0086,0.03892 -0.04105,0.07303 -0.05497,0.109935 l -0.02748,0.05497 c -0.06459,0.13935 -0.162767,0.276717 -0.302321,0.357288 -0.06982,0.04032 -0.144421,0.03898 -0.21987,0.05497 -0.06653,0.0141 -0.124805,0.03125 -0.192386,0.02748 -0.03823,0.0021 -0.07183,0.0035 -0.109935,0 z"
         style="fill:#3c3c3c;fill-opacity:1;stroke:none"
         inkscape:connector-curvature="0" />
      <rect
         rx="0.77823555"
         y="3.0297952"
         x="-8"
         height="15.940411"
         width="1.6101426"
         id="rect4109"
         style="fill:#3c3c3c;fill-opacity:1;stroke:none"
         transform="matrix(0,-1,1,0,0,0)" />
      <rect
         rx="0.7229324"
         y="1"
         x="17.360064"
         height="7"
         width="1.6101427"
         id="rect4111"
         style="fill:#3c3c3c;fill-opacity:1;stroke:none" />
      <rect
         style="fill:#3c3c3c;fill-opacity:1;stroke:none"
         id="rect4113"
         width="1.6101431"
         height="7"
         x="3.0297952"
         y="1"
         rx="0.7229324" />
      <path
         inkscape:connector-curvature="0"
         style="fill:#3c3c3c;fill-opacity:1;stroke:none"
         d="m 10.890066,1.0021329 c -0.02926,0.0027 -0.05356,0.02136 -0.08245,0.02748 -0.07545,0.01599 -0.150047,0.01465 -0.219869,0.05497 -0.139555,0.08057 -0.237733,0.217938 -0.302321,0.357288 -0.02479,0.0535 -0.06954,0.10653 -0.08245,0.164902 l -1.0993527,1.868896 c -0.2436158,0.421955 -0.1114186,0.958795 0.2748373,1.1818 0.3862559,0.223005 0.8832174,0.06467 1.1268324,-0.357288 l 0.494708,-0.851996 0.494707,0.851996 c 0.243616,0.421955 0.740577,0.580293 1.126833,0.357288 0.386255,-0.223005 0.518453,-0.759845 0.274837,-1.1818 l -1.099349,-1.868894 c -0.0086,-0.03892 -0.04105,-0.07303 -0.05497,-0.109935 l -0.02748,-0.05497 c -0.06459,-0.13935 -0.162767,-0.276717 -0.302321,-0.357288 -0.06982,-0.04032 -0.144421,-0.03898 -0.21987,-0.05497 -0.06653,-0.0141 -0.124805,-0.03125 -0.192386,-0.02748 -0.03823,-0.0021 -0.07183,-0.0035 -0.109935,0 z"
         id="path4115" />
      <path
         id="path4122"
         d="m 18.0552,1.0021329 c -0.02926,0.0027 -0.05356,0.02136 -0.08245,0.02748 -0.07545,0.01599 -0.150047,0.01465 -0.219869,0.05497 -0.139555,0.08057 -0.237733,0.217938 -0.302321,0.357288 -0.02479,0.0535 -0.06954,0.10653 -0.08245,0.164902 l -1.099353,1.868896 c -0.243616,0.421955 -0.111418,0.958795 0.274838,1.1818 0.386255,0.223005 0.883217,0.06467 1.126832,-0.357288 l 0.494708,-0.851996 0.494707,0.851996 c 0.243616,0.421955 0.740577,0.580293 1.126833,0.357288 0.386255,-0.223005 0.518453,-0.759845 0.274837,-1.1818 l -1.099349,-1.868894 c -0.0086,-0.03892 -0.04105,-0.07303 -0.05497,-0.109935 l -0.02748,-0.05497 c -0.06459,-0.13935 -0.162767,-0.276717 -0.302321,-0.357288 -0.06982,-0.04032 -0.144421,-0.03898 -0.21987,-0.05497 -0.06653,-0.0141 -0.124805,-0.03125 -0.192386,-0.02748 -0.03823,-0.0021 -0.07183,-0.0035 -0.109935,0 z"
         style="fill:#3c3c3c;fill-opacity:1;stroke:none"
         inkscape:connector-curvature="0" />
      <path
         inkscape:connector-curvature="0"
         style="fill:#3c3c3c;fill-opacity:1;stroke:none"
         d="m 3.7249322,1.0021329 c -0.02926,0.0027 -0.05356,0.02136 -0.08245,0.02748 -0.07545,0.01599 -0.150047,0.01465 -0.219869,0.05497 -0.139555,0.08057 -0.237733,0.217938 -0.302321,0.357288 -0.02479,0.0535 -0.06954,0.10653 -0.08245,0.164902 l -1.099353,1.868896 c -0.243616,0.421955 -0.111418,0.958795 0.274838,1.1818 0.386255,0.223005 0.883217,0.06467 1.126832,-0.357288 l 0.494708,-0.851996 0.494707,0.851996 c 0.243616,0.421955 0.740577,0.580293 1.126833,0.357288 0.386255,-0.223005 0.518453,-0.759845 0.274837,-1.1818 l -1.099349,-1.868894 c -0.0086,-0.03892 -0.04105,-0.07303 -0.05497,-0.109935 l -0.02748,-0.05497 c -0.06459,-0.13935 -0.162767,-0.276717 -0.302321,-0.357288 -0.06982,-0.04032 -0.144421,-0.03898 -0.21987,-0.05497 -0.06653,-0.0141 -0.124805,-0.03125 -0.192386,-0.02748 -0.03823,-0.0021 -0.07183,-0.0035 -0.109935,0 z"
         id="path4124" />
    </g>
  </g>
</svg>
