<?xml version="1.0" encoding="UTF-8" standalone="no"?>
<!-- Created with Inkscape (http://www.inkscape.org/) -->

<svg
   xmlns:dc="http://purl.org/dc/elements/1.1/"
   xmlns:cc="http://creativecommons.org/ns#"
   xmlns:rdf="http://www.w3.org/1999/02/22-rdf-syntax-ns#"
   xmlns:svg="http://www.w3.org/2000/svg"
   xmlns="http://www.w3.org/2000/svg"
   xmlns:sodipodi="http://sodipodi.sourceforge.net/DTD/sodipodi-0.dtd"
   xmlns:inkscape="http://www.inkscape.org/namespaces/inkscape"
   id="svg2"
   height="22"
   width="22"
   version="1.0"
   inkscape:version="0.48.3.1 r9886"
   sodipodi:docname="indicator_sound_switcher.svg">
  <metadata
     id="metadata3014">
    <rdf:RDF>
      <cc:Work
         rdf:about="">
        <dc:format>image/svg+xml</dc:format>
        <dc:type
           rdf:resource="http://purl.org/dc/dcmitype/StillImage" />
        <dc:title></dc:title>
      </cc:Work>
    </rdf:RDF>
  </metadata>
  <defs
     id="defs3012" />
  <sodipodi:namedview
     pagecolor="#646464"
     bordercolor="#666666"
     borderopacity="1"
     objecttolerance="10"
     gridtolerance="10"
     guidetolerance="10"
     inkscape:pageopacity="0"
     inkscape:pageshadow="2"
     inkscape:window-width="2495"
     inkscape:window-height="1416"
     id="namedview3010"
     showgrid="false"
     inkscape:zoom="32.772727"
     inkscape:cx="4.3632888"
     inkscape:cy="11.425827"
     inkscape:window-x="65"
     inkscape:window-y="24"
     inkscape:window-maximized="1"
     inkscape:current-layer="svg2"
     inkscape:snap-global="true">
    <inkscape:grid
       type="xygrid"
       id="grid3820" />
  </sodipodi:namedview>
  <path
     style="fill:#000000;fill-opacity:0.29803922;stroke:none"
     d="m 3.6875,1.7822902 c -0.016092,0.00654 -0.013916,0.027578 -0.03125,0.03125 -0.2992579,0.041327 -0.5281596,0.2406564 -0.59375,0.53125 -0.00946,0.018486 -0.026947,0.043043 -0.03125,0.0625 l -1.09375,1.875 c -0.243616,0.421955 -0.105006,0.933245 0.28125,1.15625 0.255985,0.1477934 0.5652368,0.1216742 0.8125,-0.03125 l 0,2.5625 0,0.03125 0,0.0625 c 0.00662,0.085303 0.030777,0.1747478 0.0625,0.25 0.00349,0.00935 -0.00386,0.022086 0,0.03125 0.038593,0.083232 0.092239,0.154739 0.15625,0.21875 0.1317761,0.1411807 0.2907476,0.21875 0.5,0.21875 0.02031,0.00158 0.041772,0 0.0625,0 l 0.09375,0 6.28125,0 0,4.9062498 C 9.940237,13.535616 9.6309856,13.509497 9.375,13.65729 8.9887441,13.880295 8.8501342,14.422835 9.09375,14.84479 l 1.09375,1.875 c 0.0049,0.02232 0.0199,0.04142 0.03125,0.0625 0.03103,0.114734 0.109049,0.196895 0.1875,0.28125 0.05868,0.0631 0.109523,0.117384 0.1875,0.15625 0.06866,0.03422 0.139646,0.05158 0.21875,0.0625 0.03287,0.0045 0.05959,0.03125 0.09375,0.03125 0.02732,9.84e-4 0.06508,0.0016 0.09375,0 0.06758,0.0038 0.12097,-0.01715 0.1875,-0.03125 0.0791,-0.01092 0.150093,-0.02828 0.21875,-0.0625 0.07798,-0.03887 0.128819,-0.09315 0.1875,-0.15625 0.07031,-0.0756 0.123409,-0.149386 0.15625,-0.25 0.01392,-0.03691 0.02265,-0.05483 0.03125,-0.09375 l 1.125,-1.875 c 0.243616,-0.421955 0.105005,-0.964495 -0.28125,-1.1875 -0.255986,-0.147793 -0.565237,-0.121674 -0.8125,0.03125 l 0,-4.9062498 6.375,0 c 0.02073,0 0.04219,0.00158 0.0625,0 0.209252,0 0.368224,-0.077569 0.5,-0.21875 0.140666,-0.1406661 0.21875,-0.3469288 0.21875,-0.5625 l 0,-0.03125 0,-2.5625 c 0.247263,0.1529242 0.556514,0.1790434 0.8125,0.03125 0.386255,-0.223005 0.524866,-0.734295 0.28125,-1.15625 l -1.09375,-1.875 c -0.0086,-0.03892 -0.04858,-0.088095 -0.0625,-0.125 -0.08439,-0.2585284 -0.285913,-0.4305534 -0.5625,-0.46875 -0.03416,-0.00724 -0.06156,-0.025647 -0.09375,-0.03125 l -0.09375,0 c -0.03823,-0.0021 -0.05564,-0.0035 -0.09375,0 -0.02926,0.0027 -0.06486,0.02513 -0.09375,0.03125 -0.07494,0.013612 -0.153878,0.027804 -0.21875,0.0625 -0.01258,0.00726 -0.01933,0.023102 -0.03125,0.03125 -0.172891,0.1054788 -0.306799,0.2615195 -0.34375,0.46875 -0.0032,0.00854 0.0019,0.022494 0,0.03125 l -1.09375,1.875 c -0.243616,0.421955 -0.136256,0.933245 0.25,1.15625 0.268739,0.1551568 0.590443,0.1118905 0.84375,-0.0625 l 0,1.8125 -5.5625,0 0,-1.78125 c 0.247263,0.1529242 0.556514,0.1790434 0.8125,0.03125 0.386255,-0.223005 0.524866,-0.734295 0.28125,-1.15625 l -1.09375,-1.875 c -0.0043,-0.01946 -0.02032,-0.044494 -0.03125,-0.0625 -0.01093,-0.018006 -0.02429,-0.044048 -0.03125,-0.0625 -0.03284,-0.1006136 -0.08594,-0.1744025 -0.15625,-0.25 -0.05868,-0.063096 -0.109523,-0.1173838 -0.1875,-0.15625 -0.06866,-0.034221 -0.139646,-0.051576 -0.21875,-0.0625 -0.03287,-0.00454 -0.05959,-0.03125 -0.09375,-0.03125 l -0.09375,0 c -0.03823,-0.0021 -0.0869,-0.0035 -0.125,0 -0.0117,0.00108 -0.02052,-0.00436 -0.03125,0 -0.01267,0.00108 -0.01878,0.029528 -0.03125,0.03125 -0.0791,0.010924 -0.150093,0.028279 -0.21875,0.0625 -0.07798,0.038866 -0.128819,0.093154 -0.1875,0.15625 -0.08512,0.091519 -0.158938,0.1859603 -0.1875,0.3125 -0.0095,0.018486 -0.02695,0.043043 -0.03125,0.0625 l -1.09375,1.875 c -0.2436158,0.421955 -0.1050059,0.933245 0.28125,1.15625 0.2559856,0.1477934 0.565237,0.1216742 0.8125,-0.03125 l 0,1.78125 -5.5625,0 0,-1.8125 c 0.2533074,0.1743903 0.5750106,0.2176568 0.84375,0.0625 0.386255,-0.223005 0.493616,-0.734295 0.25,-1.15625 l -1.09375,-1.875 c -0.00172,-0.00778 0.00329,-0.02379 0,-0.03125 C 4.585572,2.1549179 4.4411898,1.9782969 4.25,1.8760402 4.228922,1.8638682 4.209341,1.8509922 4.1875,1.8447902 4.139644,1.8246162 4.0837794,1.8230812 4.03125,1.8135402 3.986297,1.8040102 3.949082,1.7872082 3.90625,1.7822902 l -0.0625,0 c -0.03823,-0.0021 -0.086895,-0.0035 -0.125,0 -0.011704,0.00108 -0.020522,-0.00436 -0.03125,0 z m 2.5,8.3749998 c -1.0953783,1.168567 -1.75,2.736362 -1.75,4.46875 0,3.631133 2.9313683,6.5625 6.5625,6.5625 3.631134,0 6.5625,-2.931367 6.5625,-6.5625 0,-1.72853 -0.660413,-3.297956 -1.75,-4.46875 L 14.5,11.46979 c 0.760804,0.829026 1.1875,1.936725 1.1875,3.15625 0,2.593666 -2.093833,4.6875 -4.6875,4.6875 -2.5936653,0 -4.6875,-2.093834 -4.6875,-4.6875 0,-1.212189 0.4593126,-2.298258 1.21875,-3.125 L 6.1875,10.15729 z"
     id="path4153"
     inkscape:connector-curvature="0" />
  <g
     id="g4139"
     transform="translate(-6.2021172e-7,-0.45769765)">
    <path
       id="path2993"
       d="m 6.1875,9.375 c -1.0953783,1.168567 -1.75,2.736362 -1.75,4.46875 0,3.631133 2.9313679,6.5625 6.5625,6.5625 3.631134,0 6.5625,-2.931367 6.5625,-6.5625 0,-1.72853 -0.660413,-3.297956 -1.75,-4.46875 L 14.5,10.6875 c 0.760804,0.829026 1.1875,1.936725 1.1875,3.15625 0,2.593666 -2.093833,4.6875 -4.6875,4.6875 -2.5936657,0 -4.6875,-2.093834 -4.6875,-4.6875 0,-1.212189 0.4593126,-2.298258 1.21875,-3.125 L 6.1875,9.375 z"
       style="fill:#dfdbd2;fill-opacity:1;stroke:none"
       inkscape:connector-curvature="0" />
    <g
       id="g4129">
      <rect
         style="fill:#dfdbd2;fill-opacity:1;stroke:none"
         id="rect3788"
         width="1.6101431"
         height="15.523305"
         x="10.194929"
         y="1"
         rx="0.7229324" />
      <path
         id="path3811"
         d="m 10.889074,16.521156 c -0.02926,-0.0027 -0.05356,-0.02136 -0.08245,-0.02748 -0.07545,-0.01599 -0.150047,-0.01465 -0.219869,-0.05497 -0.139555,-0.08057 -0.237733,-0.217938 -0.302321,-0.357288 -0.02479,-0.0535 -0.06954,-0.10653 -0.08245,-0.164902 L 9.1026313,14.04762 c -0.2436158,-0.421955 -0.1114186,-0.958795 0.2748373,-1.1818 0.3862559,-0.223005 0.8832174,-0.06467 1.1268324,0.357288 l 0.494708,0.851996 0.494707,-0.851996 c 0.243616,-0.421955 0.740577,-0.580293 1.126833,-0.357288 0.386255,0.223005 0.518453,0.759845 0.274837,1.1818 l -1.099349,1.868894 c -0.0086,0.03892 -0.04105,0.07303 -0.05497,0.109935 l -0.02748,0.05497 c -0.06459,0.13935 -0.162767,0.276717 -0.302321,0.357288 -0.06982,0.04032 -0.144421,0.03898 -0.21987,0.05497 -0.06653,0.0141 -0.124805,0.03125 -0.192386,0.02748 -0.03823,0.0021 -0.07183,0.0035 -0.109935,0 z"
         style="fill:#dfdbd2;fill-opacity:1;stroke:none"
         inkscape:connector-curvature="0" />
      <rect
         rx="0.77823555"
         y="3.0297952"
         x="-8"
         height="15.940411"
         width="1.6101426"
         id="rect4109"
         style="fill:#dfdbd2;fill-opacity:1;stroke:none"
         transform="matrix(0,-1,1,0,0,0)" />
      <rect
         rx="0.7229324"
         y="1"
         x="17.360064"
         height="7"
         width="1.6101427"
         id="rect4111"
         style="fill:#dfdbd2;fill-opacity:1;stroke:none" />
      <rect
         style="fill:#dfdbd2;fill-opacity:1;stroke:none"
         id="rect4113"
         width="1.6101431"
         height="7"
         x="3.0297952"
         y="1"
         rx="0.7229324" />
      <path
         inkscape:connector-curvature="0"
         style="fill:#dfdbd2;fill-opacity:1;stroke:none"
         d="m 10.890066,1.0021329 c -0.02926,0.0027 -0.05356,0.02136 -0.08245,0.02748 -0.07545,0.01599 -0.150047,0.01465 -0.219869,0.05497 -0.139555,0.08057 -0.237733,0.217938 -0.302321,0.357288 -0.02479,0.0535 -0.06954,0.10653 -0.08245,0.164902 l -1.0993527,1.868896 c -0.2436158,0.421955 -0.1114186,0.958795 0.2748373,1.1818 0.3862559,0.223005 0.8832174,0.06467 1.1268324,-0.357288 l 0.494708,-0.851996 0.494707,0.851996 c 0.243616,0.421955 0.740577,0.580293 1.126833,0.357288 0.386255,-0.223005 0.518453,-0.759845 0.274837,-1.1818 l -1.099349,-1.868894 c -0.0086,-0.03892 -0.04105,-0.07303 -0.05497,-0.109935 l -0.02748,-0.05497 c -0.06459,-0.13935 -0.162767,-0.276717 -0.302321,-0.357288 -0.06982,-0.04032 -0.144421,-0.03898 -0.21987,-0.05497 -0.06653,-0.0141 -0.124805,-0.03125 -0.192386,-0.02748 -0.03823,-0.0021 -0.07183,-0.0035 -0.109935,0 z"
         id="path4115" />
      <path
         id="path4122"
         d="m 18.0552,1.0021329 c -0.02926,0.0027 -0.05356,0.02136 -0.08245,0.02748 -0.07545,0.01599 -0.150047,0.01465 -0.219869,0.05497 -0.139555,0.08057 -0.237733,0.217938 -0.302321,0.357288 -0.02479,0.0535 -0.06954,0.10653 -0.08245,0.164902 l -1.099353,1.868896 c -0.243616,0.421955 -0.111418,0.958795 0.274838,1.1818 0.386255,0.223005 0.883217,0.06467 1.126832,-0.357288 l 0.494708,-0.851996 0.494707,0.851996 c 0.243616,0.421955 0.740577,0.580293 1.126833,0.357288 0.386255,-0.223005 0.518453,-0.759845 0.274837,-1.1818 l -1.099349,-1.868894 c -0.0086,-0.03892 -0.04105,-0.07303 -0.05497,-0.109935 l -0.02748,-0.05497 c -0.06459,-0.13935 -0.162767,-0.276717 -0.302321,-0.357288 -0.06982,-0.04032 -0.144421,-0.03898 -0.21987,-0.05497 -0.06653,-0.0141 -0.124805,-0.03125 -0.192386,-0.02748 -0.03823,-0.0021 -0.07183,-0.0035 -0.109935,0 z"
         style="fill:#dfdbd2;fill-opacity:1;stroke:none"
         inkscape:connector-curvature="0" />
      <path
         inkscape:connector-curvature="0"
         style="fill:#dfdbd2;fill-opacity:1;stroke:none"
         d="m 3.7249322,1.0021329 c -0.02926,0.0027 -0.05356,0.02136 -0.08245,0.02748 -0.07545,0.01599 -0.150047,0.01465 -0.219869,0.05497 -0.139555,0.08057 -0.237733,0.217938 -0.302321,0.357288 -0.02479,0.0535 -0.06954,0.10653 -0.08245,0.164902 l -1.099353,1.868896 c -0.243616,0.421955 -0.111418,0.958795 0.274838,1.1818 0.386255,0.223005 0.883217,0.06467 1.126832,-0.357288 l 0.494708,-0.851996 0.494707,0.851996 c 0.243616,0.421955 0.740577,0.580293 1.126833,0.357288 0.386255,-0.223005 0.518453,-0.759845 0.274837,-1.1818 l -1.099349,-1.868894 c -0.0086,-0.03892 -0.04105,-0.07303 -0.05497,-0.109935 l -0.02748,-0.05497 c -0.06459,-0.13935 -0.162767,-0.276717 -0.302321,-0.357288 -0.06982,-0.04032 -0.144421,-0.03898 -0.21987,-0.05497 -0.06653,-0.0141 -0.124805,-0.03125 -0.192386,-0.02748 -0.03823,-0.0021 -0.07183,-0.0035 -0.109935,0 z"
         id="path4124" />
    </g>
  </g>
</svg>
